REM DIRINDEX 1\2\4\18,1\2\4\19,1\2\5\20,1\2\5\21,1\2\6\22,1\2\6\23,1\2\7\24,1\2\7\25,1\2\8\26,1\2\8\27,1\2\9\28,1\2\9\29,1\2\10\30,1\3\11\31,1\3\11\32,1\3\11\33,1\3\11\34,1\3\11\35,1\3\12\36,1\3\12\37,1\3\12\38,1\3\12\39,1\3\12\40,1\3\13\41,1\3\13\42,1\3\13\43,1\3\13\44,1\3\13\45,1\3\14\46,1\3\14\47,1\3\14\48,1\3\14\49,1\3\15\50,1\3\15\51,1\3\15\52,1\3\15\53,1\3\15\54,1\3\16\55,1\3\16\56,1\3\16\57,1\3\16\58,1\3\16\59,1\3\17\60,1\3\17\61
REM DIRNAME "folder01","folder02","folder03","folder04","folder05","folder06","folder07","folder08","folder09","folder10","folder11","folder12","folder13","folder14","folder15","folder16","folder17","folder18","folder19","folder20","folder21","folder22","folder23","folder24","folder25","folder26","folder27","folder28","folder29","folder30","folder31","folder32","folder33","folder34","folder35","folder36","folder37","folder38","folder39","folder40","folder41","folder42","folder43","folder44","folder45","folder46","folder47","folder48","folder49","folder50","folder51","folder52","folder53","folder54","folder55","folder56","folder57","folder58","folder59","folder60","folder61"
TITLE ""
FILE "TOEIC LR Kinnojyukugo_04.mp3" MP3
  TRACK 01 AUDIO
    TITLE "0:"
    INDEX 01 00:00:00
  TRACK 02 AUDIO
    TITLE "18:cjc160_0401"
    INDEX 01 00:00:14
  TRACK 03 AUDIO
    TITLE "0:"
    INDEX 01 00:01:35
  TRACK 04 AUDIO
    TITLE "19:cjc160_0402"
    INDEX 01 00:02:01
  TRACK 05 AUDIO
    TITLE "0:"
    INDEX 01 00:04:26
  TRACK 06 AUDIO
    TITLE "18:cjc160_0403"
    INDEX 01 00:05:25
  TRACK 07 AUDIO
    TITLE "0:"
    INDEX 01 00:06:52
  TRACK 08 AUDIO
    TITLE "19:cjc160_0404"
    INDEX 01 00:07:16
  TRACK 09 AUDIO
    TITLE "0:"
    INDEX 01 00:09:13
  TRACK 10 AUDIO
    TITLE "18:cjc160_0405"
    INDEX 01 00:10:13
  TRACK 11 AUDIO
    TITLE "0:"
    INDEX 01 00:11:28
  TRACK 12 AUDIO
    TITLE "19:cjc160_0406"
    INDEX 01 00:11:65
  TRACK 13 AUDIO
    TITLE "0:"
    INDEX 01 00:15:31
  TRACK 14 AUDIO
    TITLE "18:cjc160_0407"
    INDEX 01 00:16:33
  TRACK 15 AUDIO
    TITLE "0:"
    INDEX 01 00:17:66
  TRACK 16 AUDIO
    TITLE "19:cjc160_0408"
    INDEX 01 00:18:28
  TRACK 17 AUDIO
    TITLE "0:"
    INDEX 01 00:20:05
  TRACK 18 AUDIO
    TITLE "18:cjc160_0409"
    INDEX 01 00:21:09
  TRACK 19 AUDIO
    TITLE "0:"
    INDEX 01 00:22:26
  TRACK 20 AUDIO
    TITLE "19:cjc160_0410"
    INDEX 01 00:22:63
  TRACK 21 AUDIO
    TITLE "0:"
    INDEX 01 00:25:36
  TRACK 22 AUDIO
    TITLE "18:cjc160_0411"
    INDEX 01 00:26:37
  TRACK 23 AUDIO
    TITLE "0:"
    INDEX 01 00:27:60
  TRACK 24 AUDIO
    TITLE "19:cjc160_0412"
    INDEX 01 00:28:22
  TRACK 25 AUDIO
    TITLE "0:"
    INDEX 01 00:30:54
  TRACK 26 AUDIO
    TITLE "18:cjc160_0413"
    INDEX 01 00:31:56
  TRACK 27 AUDIO
    TITLE "0:"
    INDEX 01 00:34:33
  TRACK 28 AUDIO
    TITLE "19:cjc160_0414"
    INDEX 01 00:35:01
  TRACK 29 AUDIO
    TITLE "0:"
    INDEX 01 00:37:53
  TRACK 30 AUDIO
    TITLE "18:cjc160_0415"
    INDEX 01 00:38:52
  TRACK 31 AUDIO
    TITLE "0:"
    INDEX 01 00:39:73
  TRACK 32 AUDIO
    TITLE "19:cjc160_0416"
    INDEX 01 00:40:43
  TRACK 33 AUDIO
    TITLE "0:"
    INDEX 01 00:43:00
  TRACK 34 AUDIO
    TITLE "18:cjc160_0417"
    INDEX 01 00:44:00
  TRACK 35 AUDIO
    TITLE "0:"
    INDEX 01 00:45:38
  TRACK 36 AUDIO
    TITLE "19:cjc160_0418"
    INDEX 01 00:46:01
  TRACK 37 AUDIO
    TITLE "0:"
    INDEX 01 00:47:53
  TRACK 38 AUDIO
    TITLE "18:cjc160_0419"
    INDEX 01 00:48:52
  TRACK 39 AUDIO
    TITLE "0:"
    INDEX 01 00:50:00
  TRACK 40 AUDIO
    TITLE "19:cjc160_0420"
    INDEX 01 00:50:38
  TRACK 41 AUDIO
    TITLE "0:"
    INDEX 01 00:52:72
  TRACK 42 AUDIO
    TITLE "18:cjc160_0421"
    INDEX 01 00:54:02
  TRACK 43 AUDIO
    TITLE "0:"
    INDEX 01 00:55:25
  TRACK 44 AUDIO
    TITLE "19:cjc160_0422"
    INDEX 01 00:55:62
  TRACK 45 AUDIO
    TITLE "0:"
    INDEX 01 00:57:26
  TRACK 46 AUDIO
    TITLE "18:cjc160_0423"
    INDEX 01 00:58:25
  TRACK 47 AUDIO
    TITLE "0:"
    INDEX 01 00:59:44
  TRACK 48 AUDIO
    TITLE "19:cjc160_0424"
    INDEX 01 01:00:07
  TRACK 49 AUDIO
    TITLE "0:"
    INDEX 01 01:02:70
  TRACK 50 AUDIO
    TITLE "18:cjc160_0425"
    INDEX 01 01:03:70
  TRACK 51 AUDIO
    TITLE "0:"
    INDEX 01 01:05:33
  TRACK 52 AUDIO
    TITLE "19:cjc160_0426"
    INDEX 01 01:05:70
  TRACK 53 AUDIO
    TITLE "0:"
    INDEX 01 01:08:26
  TRACK 54 AUDIO
    TITLE "18:cjc160_0427"
    INDEX 01 01:09:25
  TRACK 55 AUDIO
    TITLE "0:"
    INDEX 01 01:10:38
  TRACK 56 AUDIO
    TITLE "19:cjc160_0428"
    INDEX 01 01:11:03
  TRACK 57 AUDIO
    TITLE "0:"
    INDEX 01 01:12:63
  TRACK 58 AUDIO
    TITLE "18:cjc160_0429"
    INDEX 01 01:13:62
  TRACK 59 AUDIO
    TITLE "0:"
    INDEX 01 01:15:38
  TRACK 60 AUDIO
    TITLE "19:cjc160_0430"
    INDEX 01 01:16:00
  TRACK 61 AUDIO
    TITLE "0:"
    INDEX 01 01:18:28
  TRACK 62 AUDIO
    TITLE "18:cjc160_0431"
    INDEX 01 01:19:33
  TRACK 63 AUDIO
    TITLE "0:"
    INDEX 01 01:21:07
  TRACK 64 AUDIO
    TITLE "19:cjc160_0432"
    INDEX 01 01:21:46
  TRACK 65 AUDIO
    TITLE "0:"
    INDEX 01 01:24:66
  TRACK 66 AUDIO
    TITLE "18:cjc160_0433"
    INDEX 01 01:25:67
  TRACK 67 AUDIO
    TITLE "0:"
    INDEX 01 01:27:07
  TRACK 68 AUDIO
    TITLE "19:cjc160_0434"
    INDEX 01 01:27:45
  TRACK 69 AUDIO
    TITLE "0:"
    INDEX 01 01:29:69
  TRACK 70 AUDIO
    TITLE "18:cjc160_0435"
    INDEX 01 01:30:70
  TRACK 71 AUDIO
    TITLE "0:"
    INDEX 01 01:32:12
  TRACK 72 AUDIO
    TITLE "19:cjc160_0436"
    INDEX 01 01:32:50
  TRACK 73 AUDIO
    TITLE "0:"
    INDEX 01 01:35:03
  TRACK 74 AUDIO
    TITLE "18:cjc160_0437"
    INDEX 01 01:36:02
  TRACK 75 AUDIO
    TITLE "0:"
    INDEX 01 01:37:20
  TRACK 76 AUDIO
    TITLE "19:cjc160_0438"
    INDEX 01 01:37:61
  TRACK 77 AUDIO
    TITLE "0:"
    INDEX 01 01:40:16
  TRACK 78 AUDIO
    TITLE "18:cjc160_0439"
    INDEX 01 01:41:15
  TRACK 79 AUDIO
    TITLE "0:"
    INDEX 01 01:42:52
  TRACK 80 AUDIO
    TITLE "19:cjc160_0440"
    INDEX 01 01:43:14
  TRACK 81 AUDIO
    TITLE "0:"
    INDEX 01 01:45:68
  TRACK 82 AUDIO
    TITLE "18:cjc160_0441"
    INDEX 01 01:46:69
  TRACK 83 AUDIO
    TITLE "0:"
    INDEX 01 01:48:27
  TRACK 84 AUDIO
    TITLE "19:cjc160_0442"
    INDEX 01 01:48:64
  TRACK 85 AUDIO
    TITLE "0:"
    INDEX 01 01:50:63
  TRACK 86 AUDIO
    TITLE "18:cjc160_0443"
    INDEX 01 01:51:63
  TRACK 87 AUDIO
    TITLE "0:"
    INDEX 01 01:53:05
  TRACK 88 AUDIO
    TITLE "19:cjc160_0444"
    INDEX 01 01:53:42
  TRACK 89 AUDIO
    TITLE "0:"
    INDEX 01 01:56:31
  TRACK 90 AUDIO
    TITLE "18:cjc160_0445"
    INDEX 01 01:57:30
  TRACK 91 AUDIO
    TITLE "0:"
    INDEX 01 01:59:29
  TRACK 92 AUDIO
    TITLE "19:cjc160_0446"
    INDEX 01 01:59:68
  TRACK 93 AUDIO
    TITLE "0:"
    INDEX 01 02:02:49
  TRACK 94 AUDIO
    TITLE "18:cjc160_0447"
    INDEX 01 02:03:48
  TRACK 95 AUDIO
    TITLE "0:"
    INDEX 01 02:05:12
  TRACK 96 AUDIO
    TITLE "19:cjc160_0448"
    INDEX 01 02:05:49
  TRACK 97 AUDIO
    TITLE "0:"
    INDEX 01 02:08:14
  TRACK 98 AUDIO
    TITLE "18:cjc160_0449"
    INDEX 01 02:09:16
  TRACK 99 AUDIO
    TITLE "0:"
    INDEX 01 02:10:74
  TRACK 100 AUDIO
    TITLE "19:cjc160_0450"
    INDEX 01 02:11:40
  TRACK 101 AUDIO
    TITLE "0:"
    INDEX 01 02:14:56
  TRACK 102 AUDIO
    TITLE "18:cjc160_0451"
    INDEX 01 02:15:57
  TRACK 103 AUDIO
    TITLE "0:"
    INDEX 01 02:17:01
  TRACK 104 AUDIO
    TITLE "19:cjc160_0452"
    INDEX 01 02:17:43
  TRACK 105 AUDIO
    TITLE "0:"
    INDEX 01 02:21:21
  TRACK 106 AUDIO
    TITLE "18:cjc160_0453"
    INDEX 01 02:22:28
  TRACK 107 AUDIO
    TITLE "0:"
    INDEX 01 02:23:67
  TRACK 108 AUDIO
    TITLE "19:cjc160_0454"
    INDEX 01 02:24:31
  TRACK 109 AUDIO
    TITLE "0:"
    INDEX 01 02:27:04
  TRACK 110 AUDIO
    TITLE "18:cjc160_0455"
    INDEX 01 02:28:07
  TRACK 111 AUDIO
    TITLE "0:"
    INDEX 01 02:29:22
  TRACK 112 AUDIO
    TITLE "19:cjc160_0456"
    INDEX 01 02:29:65
  TRACK 113 AUDIO
    TITLE "0:"
    INDEX 01 02:32:40
  TRACK 114 AUDIO
    TITLE "18:cjc160_0457"
    INDEX 01 02:33:45
  TRACK 115 AUDIO
    TITLE "0:"
    INDEX 01 02:34:43
  TRACK 116 AUDIO
    TITLE "19:cjc160_0458"
    INDEX 01 02:35:19
  TRACK 117 AUDIO
    TITLE "0:"
    INDEX 01 02:37:49
  TRACK 118 AUDIO
    TITLE "18:cjc160_0459"
    INDEX 01 02:38:51
  TRACK 119 AUDIO
    TITLE "0:"
    INDEX 01 02:40:08
  TRACK 120 AUDIO
    TITLE "19:cjc160_0460"
    INDEX 01 02:40:48
  TRACK 121 AUDIO
    TITLE "0:"
    INDEX 01 02:42:13
  TRACK 122 AUDIO
    TITLE "18:cjc160_0461"
    INDEX 01 02:43:13
  TRACK 123 AUDIO
    TITLE "0:"
    INDEX 01 02:44:34
  TRACK 124 AUDIO
    TITLE "19:cjc160_0462"
    INDEX 01 02:44:71
  TRACK 125 AUDIO
    TITLE "0:"
    INDEX 01 02:46:34
  TRACK 126 AUDIO
    TITLE "18:cjc160_0463"
    INDEX 01 02:47:36
  TRACK 127 AUDIO
    TITLE "0:"
    INDEX 01 02:49:01
  TRACK 128 AUDIO
    TITLE "19:cjc160_0464"
    INDEX 01 02:49:41
  TRACK 129 AUDIO
    TITLE "0:"
    INDEX 01 02:52:23
  TRACK 130 AUDIO
    TITLE "18:cjc160_0465"
    INDEX 01 02:53:23
  TRACK 131 AUDIO
    TITLE "0:"
    INDEX 01 02:55:37
  TRACK 132 AUDIO
    TITLE "19:cjc160_0466"
    INDEX 01 02:56:03
  TRACK 133 AUDIO
    TITLE "0:"
    INDEX 01 02:58:40
  TRACK 134 AUDIO
    TITLE "18:cjc160_0467"
    INDEX 01 02:59:41
  TRACK 135 AUDIO
    TITLE "0:"
    INDEX 01 03:01:10
  TRACK 136 AUDIO
    TITLE "19:cjc160_0468"
    INDEX 01 03:01:52
  TRACK 137 AUDIO
    TITLE "0:"
    INDEX 01 03:04:58
  TRACK 138 AUDIO
    TITLE "18:cjc160_0469"
    INDEX 01 03:05:57
  TRACK 139 AUDIO
    TITLE "0:"
    INDEX 01 03:07:05
  TRACK 140 AUDIO
    TITLE "19:cjc160_0470"
    INDEX 01 03:07:42
  TRACK 141 AUDIO
    TITLE "0:"
    INDEX 01 03:10:31
  TRACK 142 AUDIO
    TITLE "18:cjc160_0471"
    INDEX 01 03:11:30
  TRACK 143 AUDIO
    TITLE "0:"
    INDEX 01 03:14:33
  TRACK 144 AUDIO
    TITLE "19:cjc160_0472"
    INDEX 01 03:14:72
  TRACK 145 AUDIO
    TITLE "0:"
    INDEX 01 03:17:08
  TRACK 146 AUDIO
    TITLE "18:cjc160_0473"
    INDEX 01 03:18:07
  TRACK 147 AUDIO
    TITLE "0:"
    INDEX 01 03:19:44
  TRACK 148 AUDIO
    TITLE "19:cjc160_0474"
    INDEX 01 03:20:06
  TRACK 149 AUDIO
    TITLE "0:"
    INDEX 01 03:22:60
  TRACK 150 AUDIO
    TITLE "18:cjc160_0475"
    INDEX 01 03:23:61
  TRACK 151 AUDIO
    TITLE "0:"
    INDEX 01 03:24:72
  TRACK 152 AUDIO
    TITLE "19:cjc160_0476"
    INDEX 01 03:25:34
  TRACK 153 AUDIO
    TITLE "0:"
    INDEX 01 03:27:08
  TRACK 154 AUDIO
    TITLE "18:cjc160_0477"
    INDEX 01 03:28:09
  TRACK 155 AUDIO
    TITLE "0:"
    INDEX 01 03:29:58
  TRACK 156 AUDIO
    TITLE "19:cjc160_0478"
    INDEX 01 03:30:20
  TRACK 157 AUDIO
    TITLE "0:"
    INDEX 01 03:32:54
  TRACK 158 AUDIO
    TITLE "18:cjc160_0479"
    INDEX 01 03:33:56
  TRACK 159 AUDIO
    TITLE "0:"
    INDEX 01 03:34:69
  TRACK 160 AUDIO
    TITLE "19:cjc160_0480"
    INDEX 01 03:35:33
  TRACK 161 AUDIO
    TITLE "0:"
    INDEX 01 03:37:14
  TRACK 162 AUDIO
    TITLE "18:cjc160_0481"
    INDEX 01 03:38:12
  TRACK 163 AUDIO
    TITLE "0:"
    INDEX 01 03:39:56
  TRACK 164 AUDIO
    TITLE "19:cjc160_0482"
    INDEX 01 03:40:20
  TRACK 165 AUDIO
    TITLE "0:"
    INDEX 01 03:43:07
  TRACK 166 AUDIO
    TITLE "18:cjc160_0483"
    INDEX 01 03:44:10
  TRACK 167 AUDIO
    TITLE "0:"
    INDEX 01 03:45:33
  TRACK 168 AUDIO
    TITLE "19:cjc160_0484"
    INDEX 01 03:45:72
  TRACK 169 AUDIO
    TITLE "0:"
    INDEX 01 03:48:28
  TRACK 170 AUDIO
    TITLE "18:cjc160_0485"
    INDEX 01 03:49:29
  TRACK 171 AUDIO
    TITLE "0:"
    INDEX 01 03:50:52
  TRACK 172 AUDIO
    TITLE "19:cjc160_0486"
    INDEX 01 03:51:16
  TRACK 173 AUDIO
    TITLE "0:"
    INDEX 01 03:53:43
  TRACK 174 AUDIO
    TITLE "18:cjc160_0487"
    INDEX 01 03:54:42
  TRACK 175 AUDIO
    TITLE "0:"
    INDEX 01 03:55:71
  TRACK 176 AUDIO
    TITLE "19:cjc160_0488"
    INDEX 01 03:56:35
  TRACK 177 AUDIO
    TITLE "0:"
    INDEX 01 03:58:69
  TRACK 178 AUDIO
    TITLE "18:cjc160_0489"
    INDEX 01 03:59:71
  TRACK 179 AUDIO
    TITLE "0:"
    INDEX 01 04:01:40
  TRACK 180 AUDIO
    TITLE "19:cjc160_0490"
    INDEX 01 04:02:02
  TRACK 181 AUDIO
    TITLE "0:"
    INDEX 01 04:05:38
  TRACK 182 AUDIO
    TITLE "18:cjc160_0491"
    INDEX 01 04:06:37
  TRACK 183 AUDIO
    TITLE "0:"
    INDEX 01 04:08:09
  TRACK 184 AUDIO
    TITLE "19:cjc160_0492"
    INDEX 01 04:08:48
  TRACK 185 AUDIO
    TITLE "0:"
    INDEX 01 04:11:50
  TRACK 186 AUDIO
    TITLE "18:cjc160_0493"
    INDEX 01 04:12:50
  TRACK 187 AUDIO
    TITLE "0:"
    INDEX 01 04:13:65
  TRACK 188 AUDIO
    TITLE "19:cjc160_0494"
    INDEX 01 04:14:29
  TRACK 189 AUDIO
    TITLE "0:"
    INDEX 01 04:16:42
  TRACK 190 AUDIO
    TITLE "18:cjc160_0495"
    INDEX 01 04:17:43
  TRACK 191 AUDIO
    TITLE "0:"
    INDEX 01 04:18:68
  TRACK 192 AUDIO
    TITLE "19:cjc160_0496"
    INDEX 01 04:19:34
  TRACK 193 AUDIO
    TITLE "0:"
    INDEX 01 04:21:45
  TRACK 194 AUDIO
    TITLE "18:cjc160_0497"
    INDEX 01 04:22:46
  TRACK 195 AUDIO
    TITLE "0:"
    INDEX 01 04:23:61
  TRACK 196 AUDIO
    TITLE "19:cjc160_0498"
    INDEX 01 04:24:25
  TRACK 197 AUDIO
    TITLE "0:"
    INDEX 01 04:26:38
  TRACK 198 AUDIO
    TITLE "18:cjc160_0499"
    INDEX 01 04:27:38
  TRACK 199 AUDIO
    TITLE "0:"
    INDEX 01 04:28:61
  TRACK 200 AUDIO
    TITLE "19:cjc160_0500"
    INDEX 01 04:29:25
  TRACK 201 AUDIO
    TITLE "0:"
    INDEX 01 04:31:10
  TRACK 202 AUDIO
    TITLE "18:cjc160_0501"
    INDEX 01 04:32:09
  TRACK 203 AUDIO
    TITLE "0:"
    INDEX 01 04:33:28
  TRACK 204 AUDIO
    TITLE "19:cjc160_0502"
    INDEX 01 04:33:70
  TRACK 205 AUDIO
    TITLE "0:"
    INDEX 01 04:36:05
  TRACK 206 AUDIO
    TITLE "18:cjc160_0503"
    INDEX 01 04:37:05
  TRACK 207 AUDIO
    TITLE "0:"
    INDEX 01 04:38:04
  TRACK 208 AUDIO
    TITLE "19:cjc160_0504"
    INDEX 01 04:38:51
  TRACK 209 AUDIO
    TITLE "0:"
    INDEX 01 04:41:57
  TRACK 210 AUDIO
    TITLE "18:cjc160_0505"
    INDEX 01 04:42:59
  TRACK 211 AUDIO
    TITLE "0:"
    INDEX 01 04:43:68
  TRACK 212 AUDIO
    TITLE "19:cjc160_0506"
    INDEX 01 04:44:26
  TRACK 213 AUDIO
    TITLE "0:"
    INDEX 01 04:46:39
  TRACK 214 AUDIO
    TITLE "18:cjc160_0507"
    INDEX 01 04:47:42
  TRACK 215 AUDIO
    TITLE "0:"
    INDEX 01 04:48:65
  TRACK 216 AUDIO
    TITLE "19:cjc160_0508"
    INDEX 01 04:49:21
  TRACK 217 AUDIO
    TITLE "0:"
    INDEX 01 04:52:22
  TRACK 218 AUDIO
    TITLE "18:cjc160_0509"
    INDEX 01 04:53:23
  TRACK 219 AUDIO
    TITLE "0:"
    INDEX 01 04:54:34
  TRACK 220 AUDIO
    TITLE "19:cjc160_0510"
    INDEX 01 04:54:74
  TRACK 221 AUDIO
    TITLE "0:"
    INDEX 01 04:57:37
  TRACK 222 AUDIO
    TITLE "18:cjc160_0511"
    INDEX 01 04:58:38
  TRACK 223 AUDIO
    TITLE "0:"
    INDEX 01 04:59:59
  TRACK 224 AUDIO
    TITLE "19:cjc160_0512"
    INDEX 01 05:00:23
  TRACK 225 AUDIO
    TITLE "0:"
    INDEX 01 05:02:38
  TRACK 226 AUDIO
    TITLE "18:cjc160_0513"
    INDEX 01 05:03:37
  TRACK 227 AUDIO
    TITLE "0:"
    INDEX 01 05:04:64
  TRACK 228 AUDIO
    TITLE "19:cjc160_0514"
    INDEX 01 05:05:28
  TRACK 229 AUDIO
    TITLE "0:"
    INDEX 01 05:07:51
  TRACK 230 AUDIO
    TITLE "18:cjc160_0515"
    INDEX 01 05:08:56
  TRACK 231 AUDIO
    TITLE "0:"
    INDEX 01 05:09:65
  TRACK 232 AUDIO
    TITLE "19:cjc160_0516"
    INDEX 01 05:10:33
  TRACK 233 AUDIO
    TITLE "0:"
    INDEX 01 05:11:60
  TRACK 234 AUDIO
    TITLE "18:cjc160_0517"
    INDEX 01 05:12:70
  TRACK 235 AUDIO
    TITLE "0:"
    INDEX 01 05:14:18
  TRACK 236 AUDIO
    TITLE "19:cjc160_0518"
    INDEX 01 05:14:63
  TRACK 237 AUDIO
    TITLE "0:"
    INDEX 01 05:16:60
  TRACK 238 AUDIO
    TITLE "18:cjc160_0519"
    INDEX 01 05:17:59
  TRACK 239 AUDIO
    TITLE "0:"
    INDEX 01 05:19:25
  TRACK 240 AUDIO
    TITLE "19:cjc160_0520"
    INDEX 01 05:19:68
  TRACK 241 AUDIO
    TITLE "0:"
    INDEX 01 05:23:05
  TRACK 242 AUDIO
    TITLE "18:cjc160_0521"
    INDEX 01 05:24:04
  TRACK 243 AUDIO
    TITLE "0:"
    INDEX 01 05:25:49
  TRACK 244 AUDIO
    TITLE "19:cjc160_0522"
    INDEX 01 05:26:13
  TRACK 245 AUDIO
    TITLE "0:"
    INDEX 01 05:28:69
  TRACK 246 AUDIO
    TITLE "18:cjc160_0523"
    INDEX 01 05:29:70
  TRACK 247 AUDIO
    TITLE "0:"
    INDEX 01 05:31:26
  TRACK 248 AUDIO
    TITLE "19:cjc160_0524"
    INDEX 01 05:31:65
  TRACK 249 AUDIO
    TITLE "0:"
    INDEX 01 05:34:03
  TRACK 250 AUDIO
    TITLE "18:cjc160_0525"
    INDEX 01 05:35:02
  TRACK 251 AUDIO
    TITLE "0:"
    INDEX 01 05:36:31
  TRACK 252 AUDIO
    TITLE "19:cjc160_0526"
    INDEX 01 05:36:68
  TRACK 253 AUDIO
    TITLE "0:"
    INDEX 01 05:38:67
  TRACK 254 AUDIO
    TITLE "18:cjc160_0527"
    INDEX 01 05:39:68
  TRACK 255 AUDIO
    TITLE "0:"
    INDEX 01 05:41:07
  TRACK 256 AUDIO
    TITLE "19:cjc160_0528"
    INDEX 01 05:41:46
  TRACK 257 AUDIO
    TITLE "0:"
    INDEX 01 05:43:74
  TRACK 258 AUDIO
    TITLE "18:cjc160_0529"
    INDEX 01 05:44:73
  TRACK 259 AUDIO
    TITLE "0:"
    INDEX 01 05:46:08
  TRACK 260 AUDIO
    TITLE "19:cjc160_0530"
    INDEX 01 05:46:45
  TRACK 261 AUDIO
    TITLE "0:"
    INDEX 01 05:48:52
  TRACK 262 AUDIO
    TITLE "18:cjc160_0531"
    INDEX 01 05:49:61
  TRACK 263 AUDIO
    TITLE "0:"
    INDEX 01 05:50:64
  TRACK 264 AUDIO
    TITLE "19:cjc160_0532"
    INDEX 01 05:51:28
  TRACK 265 AUDIO
    TITLE "0:"
    INDEX 01 05:53:16
  TRACK 266 AUDIO
    TITLE "18:cjc160_0533"
    INDEX 01 05:54:19
  TRACK 267 AUDIO
    TITLE "0:"
    INDEX 01 05:55:50
  TRACK 268 AUDIO
    TITLE "19:cjc160_0534"
    INDEX 01 05:56:12
  TRACK 269 AUDIO
    TITLE "0:"
    INDEX 01 05:58:72
  TRACK 270 AUDIO
    TITLE "18:cjc160_0535"
    INDEX 01 05:59:71
  TRACK 271 AUDIO
    TITLE "0:"
    INDEX 01 06:01:13
  TRACK 272 AUDIO
    TITLE "19:cjc160_0536"
    INDEX 01 06:01:48
  TRACK 273 AUDIO
    TITLE "0:"
    INDEX 01 06:04:10
  TRACK 274 AUDIO
    TITLE "18:cjc160_0537"
    INDEX 01 06:05:11
  TRACK 275 AUDIO
    TITLE "0:"
    INDEX 01 06:06:57
  TRACK 276 AUDIO
    TITLE "19:cjc160_0538"
    INDEX 01 06:07:22
  TRACK 277 AUDIO
    TITLE "0:"
    INDEX 01 06:09:70
  TRACK 278 AUDIO
    TITLE "18:cjc160_0539"
    INDEX 01 06:10:69
  TRACK 279 AUDIO
    TITLE "0:"
    INDEX 01 06:12:37
  TRACK 280 AUDIO
    TITLE "19:cjc160_0540"
    INDEX 01 06:12:72
  TRACK 281 AUDIO
    TITLE "0:"
    INDEX 01 06:15:27
  TRACK 282 AUDIO
    TITLE "18:cjc160_0541"
    INDEX 01 06:16:28
  TRACK 283 AUDIO
    TITLE "0:"
    INDEX 01 06:17:67
  TRACK 284 AUDIO
    TITLE "19:cjc160_0542"
    INDEX 01 06:18:27
  TRACK 285 AUDIO
    TITLE "0:"
    INDEX 01 06:21:16
  TRACK 286 AUDIO
    TITLE "18:cjc160_0543"
    INDEX 01 06:22:15
  TRACK 287 AUDIO
    TITLE "0:"
    INDEX 01 06:23:30
  TRACK 288 AUDIO
    TITLE "19:cjc160_0544"
    INDEX 01 06:24:02
  TRACK 289 AUDIO
    TITLE "0:"
    INDEX 01 06:26:54
  TRACK 290 AUDIO
    TITLE "18:cjc160_0545"
    INDEX 01 06:27:56
  TRACK 291 AUDIO
    TITLE "0:"
    INDEX 01 06:28:69
  TRACK 292 AUDIO
    TITLE "19:cjc160_0546"
    INDEX 01 06:29:31
  TRACK 293 AUDIO
    TITLE "0:"
    INDEX 01 06:31:42
  TRACK 294 AUDIO
    TITLE "18:cjc160_0547"
    INDEX 01 06:32:43
  TRACK 295 AUDIO
    TITLE "0:"
    INDEX 01 06:34:07
  TRACK 296 AUDIO
    TITLE "19:cjc160_0548"
    INDEX 01 06:34:44
  TRACK 297 AUDIO
    TITLE "0:"
    INDEX 01 06:36:64
  TRACK 298 AUDIO
    TITLE "18:cjc160_0549"
    INDEX 01 06:37:64
  TRACK 299 AUDIO
    TITLE "0:"
    INDEX 01 06:39:29
  TRACK 300 AUDIO
    TITLE "19:cjc160_0550"
    INDEX 01 06:40:00
  TRACK 301 AUDIO
    TITLE "0:"
    INDEX 01 06:42:61
  TRACK 302 AUDIO
    TITLE "18:cjc160_0551"
    INDEX 01 06:43:63
  TRACK 303 AUDIO
    TITLE "0:"
    INDEX 01 06:45:01
  TRACK 304 AUDIO
    TITLE "19:cjc160_0552"
    INDEX 01 06:45:40
  TRACK 305 AUDIO
    TITLE "0:"
    INDEX 01 06:47:41
  TRACK 306 AUDIO
    TITLE "18:cjc160_0553"
    INDEX 01 06:48:40
  TRACK 307 AUDIO
    TITLE "0:"
    INDEX 01 06:50:31
  TRACK 308 AUDIO
    TITLE "19:cjc160_0554"
    INDEX 01 06:50:66
  TRACK 309 AUDIO
    TITLE "0:"
    INDEX 01 06:53:47
  TRACK 310 AUDIO
    TITLE "18:cjc160_0555"
    INDEX 01 06:54:47
  TRACK 311 AUDIO
    TITLE "0:"
    INDEX 01 06:56:08
  TRACK 312 AUDIO
    TITLE "19:cjc160_0556"
    INDEX 01 06:56:46
  TRACK 313 AUDIO
    TITLE "0:"
    INDEX 01 06:58:50
  TRACK 314 AUDIO
    TITLE "18:cjc160_0557"
    INDEX 01 06:59:54
  TRACK 315 AUDIO
    TITLE "0:"
    INDEX 01 07:00:73
  TRACK 316 AUDIO
    TITLE "19:cjc160_0558"
    INDEX 01 07:01:35
  TRACK 317 AUDIO
    TITLE "0:"
    INDEX 01 07:03:26
  TRACK 318 AUDIO
    TITLE "18:cjc160_0559"
    INDEX 01 07:04:25
  TRACK 319 AUDIO
    TITLE "0:"
    INDEX 01 07:05:48
  TRACK 320 AUDIO
    TITLE "19:cjc160_0560"
    INDEX 01 07:06:11
  TRACK 321 AUDIO
    TITLE "0:"
    INDEX 01 07:08:72
  TRACK 322 AUDIO
    TITLE "18:cjc160_0561"
    INDEX 01 07:09:72
  TRACK 323 AUDIO
    TITLE "0:"
    INDEX 01 07:11:26
  TRACK 324 AUDIO
    TITLE "19:cjc160_0562"
    INDEX 01 07:11:63
  TRACK 325 AUDIO
    TITLE "0:"
    INDEX 01 07:13:70
  TRACK 326 AUDIO
    TITLE "18:cjc160_0563"
    INDEX 01 07:14:71
  TRACK 327 AUDIO
    TITLE "0:"
    INDEX 01 07:16:31
  TRACK 328 AUDIO
    TITLE "19:cjc160_0564"
    INDEX 01 07:16:70
  TRACK 329 AUDIO
    TITLE "0:"
    INDEX 01 07:18:65
  TRACK 330 AUDIO
    TITLE "18:cjc160_0565"
    INDEX 01 07:19:64
  TRACK 331 AUDIO
    TITLE "0:"
    INDEX 01 07:21:24
  TRACK 332 AUDIO
    TITLE "19:cjc160_0566"
    INDEX 01 07:21:65
  TRACK 333 AUDIO
    TITLE "0:"
    INDEX 01 07:24:30
  TRACK 334 AUDIO
    TITLE "18:cjc160_0567"
    INDEX 01 07:25:33
  TRACK 335 AUDIO
    TITLE "0:"
    INDEX 01 07:26:49
  TRACK 336 AUDIO
    TITLE "19:cjc160_0568"
    INDEX 01 07:27:15
  TRACK 337 AUDIO
    TITLE "0:"
    INDEX 01 07:29:70
  TRACK 338 AUDIO
    TITLE "18:cjc160_0569"
    INDEX 01 07:30:72
  TRACK 339 AUDIO
    TITLE "0:"
    INDEX 01 07:32:20
  TRACK 340 AUDIO
    TITLE "19:cjc160_0570"
    INDEX 01 07:32:57
  TRACK 341 AUDIO
    TITLE "0:"
    INDEX 01 07:35:18
  TRACK 342 AUDIO
    TITLE "18:cjc160_0571"
    INDEX 01 07:36:18
  TRACK 343 AUDIO
    TITLE "0:"
    INDEX 01 07:37:68
  TRACK 344 AUDIO
    TITLE "19:cjc160_0572"
    INDEX 01 07:38:32
  TRACK 345 AUDIO
    TITLE "0:"
    INDEX 01 07:40:37
  TRACK 346 AUDIO
    TITLE "18:cjc160_0573"
    INDEX 01 07:41:38
  TRACK 347 AUDIO
    TITLE "0:"
    INDEX 01 07:43:02
  TRACK 348 AUDIO
    TITLE "19:cjc160_0574"
    INDEX 01 07:43:39
  TRACK 349 AUDIO
    TITLE "0:"
    INDEX 01 07:46:12
  TRACK 350 AUDIO
    TITLE "18:cjc160_0575"
    INDEX 01 07:47:15
  TRACK 351 AUDIO
    TITLE "0:"
    INDEX 01 07:48:31
  TRACK 352 AUDIO
    TITLE "19:cjc160_0576"
    INDEX 01 07:48:70
  TRACK 353 AUDIO
    TITLE "0:"
    INDEX 01 07:51:47
  TRACK 354 AUDIO
    TITLE "18:cjc160_0577"
    INDEX 01 07:52:44
  TRACK 355 AUDIO
    TITLE "0:"
    INDEX 01 07:53:61
  TRACK 356 AUDIO
    TITLE "19:cjc160_0578"
    INDEX 01 07:54:27
  TRACK 357 AUDIO
    TITLE "0:"
    INDEX 01 07:56:20
  TRACK 358 AUDIO
    TITLE "18:cjc160_0579"
    INDEX 01 07:57:22
  TRACK 359 AUDIO
    TITLE "0:"
    INDEX 01 07:58:39
  TRACK 360 AUDIO
    TITLE "19:cjc160_0580"
    INDEX 01 07:59:03
  TRACK 361 AUDIO
    TITLE "0:"
    INDEX 01 08:01:43
  TRACK 362 AUDIO
    TITLE "18:cjc160_0581"
    INDEX 01 08:02:46
  TRACK 363 AUDIO
    TITLE "0:"
    INDEX 01 08:03:60
  TRACK 364 AUDIO
    TITLE "19:cjc160_0582"
    INDEX 01 08:04:26
  TRACK 365 AUDIO
    TITLE "0:"
    INDEX 01 08:06:44
  TRACK 366 AUDIO
    TITLE "18:cjc160_0583"
    INDEX 01 08:07:44
  TRACK 367 AUDIO
    TITLE "0:"
    INDEX 01 08:08:63
  TRACK 368 AUDIO
    TITLE "19:cjc160_0584"
    INDEX 01 08:09:25
  TRACK 369 AUDIO
    TITLE "0:"
    INDEX 01 08:11:45
  TRACK 370 AUDIO
    TITLE "18:cjc160_0585"
    INDEX 01 08:12:45
  TRACK 371 AUDIO
    TITLE "0:"
    INDEX 01 08:13:74
  TRACK 372 AUDIO
    TITLE "19:cjc160_0586"
    INDEX 01 08:14:36
  TRACK 373 AUDIO
    TITLE "0:"
    INDEX 01 08:16:72
  TRACK 374 AUDIO
    TITLE "18:cjc160_0587"
    INDEX 01 08:17:73
  TRACK 375 AUDIO
    TITLE "0:"
    INDEX 01 08:19:29
  TRACK 376 AUDIO
    TITLE "19:cjc160_0588"
    INDEX 01 08:19:64
  TRACK 377 AUDIO
    TITLE "0:"
    INDEX 01 08:23:56
  TRACK 378 AUDIO
    TITLE "18:cjc160_0589"
    INDEX 01 08:24:56
  TRACK 379 AUDIO
    TITLE "0:"
    INDEX 01 08:26:02
  TRACK 380 AUDIO
    TITLE "19:cjc160_0590"
    INDEX 01 08:26:39
  TRACK 381 AUDIO
    TITLE "0:"
    INDEX 01 08:29:06
  TRACK 382 AUDIO
    TITLE "18:cjc160_0591"
    INDEX 01 08:30:07
  TRACK 383 AUDIO
    TITLE "0:"
    INDEX 01 08:31:27
  TRACK 384 AUDIO
    TITLE "19:cjc160_0592"
    INDEX 01 08:31:68
  TRACK 385 AUDIO
    TITLE "0:"
    INDEX 01 08:34:19
  TRACK 386 AUDIO
    TITLE "18:cjc160_0593"
    INDEX 01 08:35:18
  TRACK 387 AUDIO
    TITLE "0:"
    INDEX 01 08:36:41
  TRACK 388 AUDIO
    TITLE "19:cjc160_0594"
    INDEX 01 08:37:08
  TRACK 389 AUDIO
    TITLE "0:"
    INDEX 01 08:38:74
  TRACK 390 AUDIO
    TITLE "18:cjc160_0595"
    INDEX 01 08:40:00
  TRACK 391 AUDIO
    TITLE "0:"
    INDEX 01 08:41:13
  TRACK 392 AUDIO
    TITLE "19:cjc160_0596"
    INDEX 01 08:41:60
  TRACK 393 AUDIO
    TITLE "0:"
    INDEX 01 08:44:12
  TRACK 394 AUDIO
    TITLE "18:cjc160_0597"
    INDEX 01 08:45:13
  TRACK 395 AUDIO
    TITLE "0:"
    INDEX 01 08:46:36
  TRACK 396 AUDIO
    TITLE "19:cjc160_0598"
    INDEX 01 08:46:73
  TRACK 397 AUDIO
    TITLE "0:"
    INDEX 01 08:49:11
  TRACK 398 AUDIO
    TITLE "18:cjc160_0599"
    INDEX 01 08:50:10
  TRACK 399 AUDIO
    TITLE "0:"
    INDEX 01 08:51:43
  TRACK 400 AUDIO
    TITLE "19:cjc160_0600"
    INDEX 01 08:52:05
  TRACK 401 AUDIO
    TITLE "0:"
    INDEX 01 08:54:18
